<?xml version="1.0" standalone="no"?><!DOCTYPE svg PUBLIC "-//W3C//DTD SVG 1.1//EN" "http://www.w3.org/Graphics/SVG/1.1/DTD/svg11.dtd"><svg t="1627093805901" class="icon" viewBox="0 0 1024 1024" version="1.1" xmlns="http://www.w3.org/2000/svg" p-id="11478" xmlns:xlink="http://www.w3.org/1999/xlink" width="200" height="200"><defs><style type="text/css">@font-face { font-family: feedback-iconfont; src: url("//at.alicdn.com/t/font_1031158_1uhr8ri0pk5.eot?#iefix") format("embedded-opentype"), url("//at.alicdn.com/t/font_1031158_1uhr8ri0pk5.woff2") format("woff2"), url("//at.alicdn.com/t/font_1031158_1uhr8ri0pk5.woff") format("woff"), url("//at.alicdn.com/t/font_1031158_1uhr8ri0pk5.ttf") format("truetype"), url("//at.alicdn.com/t/font_1031158_1uhr8ri0pk5.svg#iconfont") format("svg"); }
</style></defs><path d="M363.2 365.12l-145.36 461.04a78.8 78.8 0 0 0-3.76 28.24 84.56 84.56 0 0 0 84.8 78.48 85.28 85.28 0 0 0 73.28-41.36l43.84-72.96a85.12 85.12 0 0 1 73.2-41.36h51.2a85.28 85.28 0 0 1 73.28 41.36l43.52 72.96a85.12 85.12 0 0 0 73.2 41.36 84.64 84.64 0 0 0 84.88-78.48 80.56 80.56 0 0 0-3.76-28.24L665.84 365.12z" fill="#FFBAB3" p-id="11479"></path><path d="M180.56 353.92a80.96 80.96 0 0 1 73.52 49.28c13.2 30.88 48 89.44 131.44 134.08a267.44 267.44 0 0 0 252.96 0c83.52-44.64 118.08-103.2 131.44-134.08a80.72 80.72 0 0 1 82.4-48.72 124.88 124.88 0 0 0 45.2-5.2 517.36 517.36 0 0 0 57.68-58.96c-26.08-26.8-60.08-71.2-101.76-132.4a27.92 27.92 0 0 0-31.04-11.2c-31.28 9.36-64 16-65.28 16l-20.48 4.08-16-13.04C656 102.48 548.24 91.12 512 91.12c-1.52 0-131.28 1.12-208 62.88l-16 13.04-20.48-4.08c-1.28-0.4-34-6.88-65.28-16a27.92 27.92 0 0 0-31.04 11.2c-41.68 61.2-75.92 105.6-101.76 132.4a517.36 517.36 0 0 0 57.68 58.96 124.16 124.16 0 0 0 45.36 5.2 66.32 66.32 0 0 1 8.72-0.56z" fill="#F14A37" p-id="11480"></path><path d="M525.76 480.48a192 192 0 0 1-136-56 15.44 15.44 0 0 1 21.84-21.84A161.68 161.68 0 0 0 640 402.4a15.44 15.44 0 0 1 21.76 21.6 192 192 0 0 1-136 56.48z" fill="#FFFFFF" p-id="11481"></path></svg>