<?xml version="1.0" standalone="no"?><!DOCTYPE svg PUBLIC "-//W3C//DTD SVG 1.1//EN" "http://www.w3.org/Graphics/SVG/1.1/DTD/svg11.dtd"><svg t="1627006812736" class="icon" viewBox="0 0 1024 1024" version="1.1" xmlns="http://www.w3.org/2000/svg" p-id="6386" xmlns:xlink="http://www.w3.org/1999/xlink" width="200" height="200"><defs><style type="text/css">@font-face { font-family: feedback-iconfont; src: url("//at.alicdn.com/t/font_1031158_1uhr8ri0pk5.eot?#iefix") format("embedded-opentype"), url("//at.alicdn.com/t/font_1031158_1uhr8ri0pk5.woff2") format("woff2"), url("//at.alicdn.com/t/font_1031158_1uhr8ri0pk5.woff") format("woff"), url("//at.alicdn.com/t/font_1031158_1uhr8ri0pk5.ttf") format("truetype"), url("//at.alicdn.com/t/font_1031158_1uhr8ri0pk5.svg#iconfont") format("svg"); }
</style></defs><path d="M684.032 356.9664L526.7456 585.728c-4.3008 6.5536-12.6976 10.6496-21.2992 10.6496s-16.9984-4.3008-21.2992-10.6496l-150.9376-228.7616c-8.6016-10.6496-4.3008-27.8528 6.3488-34.2016 10.6496-6.5536 27.648-4.3008 33.9968 6.5536l129.6384 196.608 135.9872-198.8608c8.6016-10.6496 23.3472-14.9504 33.9968-6.5536 17.2032 10.8544 19.2512 25.8048 10.8544 36.4544z m127.5904-130.4576L541.696 72.704c-19.2512-10.6496-44.6464-10.6496-63.6928 0l-267.6736 151.7568c-19.2512 10.6496-31.9488 32.1536-31.9488 53.4528V583.68c0 21.2992 12.6976 42.8032 31.9488 53.4528l269.7216 154.0096c19.2512 10.6496 44.6464 10.6496 63.6928 0l267.6736-149.7088c19.2512-10.6496 31.9488-32.1536 31.9488-53.4528V282.2144c0-23.552-12.6976-44.8512-31.744-55.7056z" fill="#F45656" p-id="6387"></path><path d="M828.6208 692.6336L913.408 829.44c4.3008 8.6016 0 19.2512-10.6496 19.2512l-114.688 6.5536c-4.3008 0-6.3488 2.2528-8.6016 4.3008l-70.2464 94.0032c-6.3488 6.5536-16.9984 6.5536-21.2992 0l-80.6912-134.7584c-4.3008-6.5536-2.048-12.9024 4.3008-16.9984l199.68-113.2544c6.7584-4.3008 13.1072-2.2528 17.408 4.096z m-633.2416 2.2528c4.3008-4.3008 10.6496-6.5536 16.9984-4.3008l199.68 113.2544c6.3488 4.3008 8.6016 10.6496 4.3008 16.9984l-80.6912 134.7584c-4.3008 6.5536-14.7456 6.5536-21.2992 0l-70.2464-94.0032c-2.048-2.2528-4.3008-4.3008-8.6016-4.3008l-114.688-6.5536c-10.6496 0-14.9504-10.6496-10.6496-19.2512l85.1968-136.6016z" fill="#F8A6A6" p-id="6388"></path></svg>